<svg width="50" height="59" viewBox="0 0 50 59" fill="none" xmlns="http://www.w3.org/2000/svg">
<g clip-path="url(#clip0_50_284)">
<path d="M46.9906 58.8925C48.0134 58.9058 48.8598 57.9162 48.8757 56.6886L49.28 25.4964C49.3116 23.059 47.656 21.0186 45.6253 20.9923L27.9337 20.763C27.4414 20.7566 26.9662 20.9852 26.6127 21.3985C26.2592 21.8118 26.0563 22.376 26.0486 22.9669C26.041 23.5578 26.2292 24.127 26.5719 24.5494C26.9146 24.9717 27.3837 25.2126 27.876 25.219L45.5676 25.4483L45.2788 47.7284L4.44197 47.199L4.73078 24.919L11.2275 25.0032C11.7198 25.0095 12.195 24.7809 12.5486 24.3676C12.9021 23.9543 13.105 23.3901 13.1126 22.7992C13.1203 22.2083 12.9321 21.6391 12.5894 21.2167C12.2467 20.7944 11.7776 20.5535 11.2853 20.5471L4.78854 20.4629C2.75784 20.4366 1.04994 22.4334 1.01835 24.8708L0.614012 56.063C0.598099 57.2906 1.41857 58.3018 2.44135 58.315L46.9906 58.8925ZM41.2176 43.219C41.711 43.1423 42.1597 42.8338 42.4651 42.3611C42.7704 41.8884 42.9075 41.2904 42.8459 40.6986C42.7844 40.1068 42.5295 39.5697 42.1371 39.2054C41.7447 38.8412 41.2471 38.6796 40.7537 38.7562L25.904 38.5637C25.4117 38.5573 24.9365 38.7859 24.583 39.1993C24.2295 39.6126 24.0266 40.1768 24.0189 40.7677C24.0112 41.3586 24.1995 41.9278 24.5422 42.3501C24.8849 42.7725 25.3539 43.0134 25.8462 43.0197L40.696 43.2122C40.7541 43.2163 40.8123 43.217 40.8705 43.2145C40.9279 43.2184 40.9855 43.2192 41.0431 43.2167C41.1012 43.2208 41.1594 43.2215 41.2176 43.219ZM17.0867 42.9062C17.5801 42.8295 18.0289 42.5209 18.3342 42.0483C18.6396 41.5756 18.7766 40.9776 18.7151 40.3858C18.6536 39.794 18.3986 39.2569 18.0063 38.8926C17.6139 38.5284 17.1163 38.3668 16.6229 38.4434L9.19804 38.3472C8.70574 38.3408 8.23056 38.5694 7.87704 38.9827C7.52351 39.396 7.3206 39.9602 7.31294 40.5511C7.30528 41.142 7.4935 41.7112 7.83619 42.1336C8.17888 42.5559 8.64798 42.7968 9.14028 42.8032L16.5652 42.8994C16.6232 42.9035 16.6815 42.9042 16.7396 42.9017C16.7971 42.9056 16.8547 42.9064 16.9123 42.9039C16.9704 42.908 17.0286 42.9087 17.0867 42.9062ZM41.3042 36.535C41.5485 36.497 41.7844 36.4017 41.9985 36.2545C42.2125 36.1073 42.4005 35.9111 42.5517 35.6771C42.8571 35.2044 42.9941 34.6064 42.9326 34.0146C42.9021 33.7216 42.8239 33.4389 42.7022 33.1827C42.5806 32.9265 42.418 32.7018 42.2237 32.5214C41.8314 32.1571 41.3338 31.9955 40.8404 32.0722L25.9906 31.8797C25.4983 31.8733 25.0232 32.1019 24.6696 32.5152C24.3161 32.9286 24.1132 33.4927 24.1055 34.0836C24.0979 34.6745 24.2861 35.2438 24.6288 35.6661C24.9715 36.0885 25.4406 36.3293 25.9329 36.3357L40.7826 36.5282C40.8407 36.5322 40.8989 36.533 40.9571 36.5305C41.0146 36.5344 41.0722 36.5352 41.1297 36.5327C41.1878 36.5367 41.2461 36.5375 41.3042 36.535ZM10.459 35.0209C10.5985 34.9433 10.72 34.8254 10.8125 34.6779L11.872 33.437C13.8324 33.1572 17.3022 30.5838 18.1881 29.5502L28.2037 17.8406L23.9204 12.564L13.9049 24.2713C13.164 25.1397 10.7673 29.5743 10.5563 31.9582L9.55717 33.1285C9.41782 33.2942 9.32547 33.5083 9.29331 33.7401C9.26115 33.972 9.29082 34.2098 9.37809 34.4195C9.46536 34.6293 9.60575 34.8002 9.77922 34.908C9.95268 35.0157 10.1503 35.0547 10.344 35.0194L10.459 35.0209ZM29.9691 15.8446L37.2154 7.37481C38.1203 6.31692 38.5796 3.39478 37.4028 1.94444C36.226 0.49411 34.0405 0.802265 32.9321 2.09596L25.6858 10.5657L29.9691 15.8446ZM21.7016 13.5803C22.0377 13.524 22.3481 13.3314 22.5813 13.0346L30.1774 4.21955C30.3424 4.06512 30.4787 3.87079 30.5772 3.64925C30.6758 3.42772 30.7344 3.18396 30.7492 2.93387C30.764 2.68379 30.7348 2.43302 30.6634 2.19792C30.5919 1.96282 30.4799 1.74867 30.3346 1.56947C30.1894 1.39026 30.0141 1.25003 29.8202 1.15791C29.6264 1.06579 29.4184 1.02386 29.2097 1.03485C29.001 1.04585 28.7965 1.10952 28.6093 1.22172C28.4221 1.33392 28.2566 1.49212 28.1235 1.686L20.5237 10.501C20.2914 10.7569 20.1325 11.0944 20.0698 11.4647C20.0072 11.835 20.044 12.2191 20.175 12.5616C20.306 12.904 20.5245 13.1872 20.7988 13.3703C21.0732 13.5534 21.3893 13.6269 21.7016 13.5803Z" fill="black"/>
</g>
<defs>
<clipPath id="clip0_50_284">
<rect width="48.2657" height="57.9331" fill="white" transform="translate(48.8468 58.9166) rotate(-179.257)"/>
</clipPath>
</defs>
</svg>
