<svg width="37" height="34" viewBox="0 0 37 34" fill="none" xmlns="http://www.w3.org/2000/svg">
<g filter="url(#filter0_d_50_457)">
<rect x="4.34766" y="2.92505" width="28.5416" height="24.5638" rx="8" fill="white"/>
</g>
<path d="M16.7903 14.2584H25.2278C25.3051 14.2584 25.3684 14.1951 25.3684 14.1177V13.1334C25.3684 13.056 25.3051 12.9927 25.2278 12.9927H16.7903C16.7129 12.9927 16.6497 13.056 16.6497 13.1334V14.1177C16.6497 14.1951 16.7129 14.2584 16.7903 14.2584ZM16.6497 17.8443C16.6497 17.9216 16.7129 17.9849 16.7903 17.9849H25.2278C25.3051 17.9849 25.3684 17.9216 25.3684 17.8443V16.8599C25.3684 16.7826 25.3051 16.7193 25.2278 16.7193H16.7903C16.7129 16.7193 16.6497 16.7826 16.6497 16.8599V17.8443ZM25.509 9.30133H11.7278C11.6504 9.30133 11.5872 9.36461 11.5872 9.44196V10.4263C11.5872 10.5037 11.6504 10.567 11.7278 10.567H25.509C25.5864 10.567 25.6497 10.5037 25.6497 10.4263V9.44196C25.6497 9.36461 25.5864 9.30133 25.509 9.30133ZM25.509 20.4107H11.7278C11.6504 20.4107 11.5872 20.474 11.5872 20.5513V21.5357C11.5872 21.613 11.6504 21.6763 11.7278 21.6763H25.509C25.5864 21.6763 25.6497 21.613 25.6497 21.5357V20.5513C25.6497 20.474 25.5864 20.4107 25.509 20.4107ZM11.6469 15.6101L14.3944 17.774C14.4963 17.8548 14.6475 17.7828 14.6475 17.6527V13.325C14.6475 13.1949 14.4981 13.1228 14.3944 13.2037L11.6469 15.3675C11.6284 15.3819 11.6135 15.4003 11.6032 15.4213C11.5929 15.4423 11.5876 15.4654 11.5876 15.4888C11.5876 15.5122 11.5929 15.5353 11.6032 15.5563C11.6135 15.5774 11.6284 15.5958 11.6469 15.6101Z" fill="black"/>
<defs>
<filter id="filter0_d_50_457" x="0.347656" y="0.925049" width="36.5416" height="32.5638" filterUnits="userSpaceOnUse" color-interpolation-filters="sRGB">
<feFlood flood-opacity="0" result="BackgroundImageFix"/>
<feColorMatrix in="SourceAlpha" type="matrix" values="0 0 0 0 0 0 0 0 0 0 0 0 0 0 0 0 0 0 127 0" result="hardAlpha"/>
<feOffset dy="2"/>
<feGaussianBlur stdDeviation="2"/>
<feComposite in2="hardAlpha" operator="out"/>
<feColorMatrix type="matrix" values="0 0 0 0 0 0 0 0 0 0 0 0 0 0 0 0 0 0 0.25 0"/>
<feBlend mode="normal" in2="BackgroundImageFix" result="effect1_dropShadow_50_457"/>
<feBlend mode="normal" in="SourceGraphic" in2="effect1_dropShadow_50_457" result="shape"/>
</filter>
</defs>
</svg>
