<svg width="49" height="53" viewBox="0 0 49 53" fill="none" xmlns="http://www.w3.org/2000/svg">
<path fill-rule="evenodd" clip-rule="evenodd" d="M43.3728 34.229H25.0879C27.1626 34.0357 29.0864 33.0135 30.4594 31.3748C31.8325 29.7361 32.5494 27.6069 32.4611 25.4297C32.3727 23.2524 31.486 21.1945 29.9851 19.6834C28.4842 18.1724 26.4846 17.3244 24.4017 17.3157H18.4288C19.3218 16.0595 19.9605 14.6259 20.3058 13.1026C20.6512 11.5793 20.6959 9.99832 20.4374 8.45632C20.1788 6.91432 19.6224 5.44369 18.802 4.13436C17.9817 2.82503 16.9147 1.70451 15.6664 0.841309L43.3728 0.841309C44.6445 0.84328 45.8634 1.3732 46.762 2.31471C47.6606 3.25622 48.1653 4.53234 48.1653 5.86285V29.2186C48.1653 31.986 46.0179 34.2327 43.3728 34.2327V34.229ZM9.58325 17.3231C10.4587 17.3444 11.3294 17.1824 12.1441 16.8467C12.9588 16.5109 13.7012 16.0081 14.3275 15.3679C14.9539 14.7276 15.4516 13.9628 15.7914 13.1185C16.1312 12.2741 16.3063 11.3672 16.3063 10.4511C16.3063 9.5349 16.1312 8.62799 15.7914 7.78362C15.4516 6.93926 14.9539 6.17448 14.3275 5.53424C13.7012 4.894 12.9588 4.39122 12.1441 4.05544C11.3294 3.71966 10.4587 3.55767 9.58325 3.57898C7.86766 3.62074 6.23578 4.3631 5.03654 5.64731C3.8373 6.93152 3.1659 8.65566 3.1659 10.4511C3.1659 12.2464 3.8373 13.9706 5.03654 15.2548C6.23578 16.539 7.86766 17.2814 9.58325 17.3231ZM28.053 25.7891C28.053 23.6763 26.4176 21.9653 24.4017 21.9653H9.58681C7.08806 21.9653 4.69166 23.0038 2.92478 24.8523C1.15791 26.7009 0.165283 29.2081 0.165283 31.8224V36.3046C0.165283 38.2834 1.70117 39.8866 3.59259 39.8866H4.2041L5.20669 49.5949C5.30045 50.5064 5.71267 51.3496 6.36423 51.9627C7.0158 52.5757 7.86081 52.9154 8.73709 52.9166H10.5218C11.3795 52.9162 12.2081 52.5914 12.855 52.0022C13.5018 51.413 13.9232 50.5989 14.0416 49.7102L16.7187 29.6092H24.3982C26.414 29.6092 28.0494 27.8981 28.0494 25.7891H28.053Z" fill="black"/>
</svg>
