<?xml version="1.0" encoding="UTF-8"?>
<svg version="1.1" xmlns="http://www.w3.org/2000/svg" width="70" height="66">
<path d="M0 0 C23.1 0 46.2 0 70 0 C70 21.78 70 43.56 70 66 C46.9 66 23.8 66 0 66 C0 44.22 0 22.44 0 0 Z " fill="#FCFBFB" transform="translate(0,0)"/>
<path d="M0 0 C3.25636883 1.50757816 5.7218182 3.21360841 8 6 C8.83924668 8.77558089 8.90050112 11.06478302 9 14 C9.66 14.33 10.32 14.66 11 15 C10.505 17.475 10.505 17.475 10 20 C9.01 20.33 8.02 20.66 7 21 C6.505 23.475 6.505 23.475 6 26 C5.01 26.33 4.02 26.66 3 27 C3 28.32 3 29.64 3 31 C4.2375 30.938125 5.475 30.87625 6.75 30.8125 C9.42047297 30.83617441 10.98729514 30.99491806 13.5 32 C15.9023404 35.20312054 15.25747761 38.07346641 15 42 C13.02 42 11.04 42 9 42 C9 40.68 9 39.36 9 38 C8.34 38 7.68 38 7 38 C7.165 38.66 7.33 39.32 7.5 40 C8 43 8 43 8 51 C0.08 51.495 0.08 51.495 -8 52 C-8.66 54.31 -9.32 56.62 -10 59 C-1.75 59 6.5 59 15 59 C15 60.32 15 61.64 15 63 C-5.46 63 -25.92 63 -47 63 C-47 61.68 -47 60.36 -47 59 C-41.06 58.67 -35.12 58.34 -29 58 C-28.67 56.68 -28.34 55.36 -28 54 C-26.02 54 -24.04 54 -22 54 C-22 55.32 -22 56.64 -22 58 C-20.68 58 -19.36 58 -18 58 C-18 56.68 -18 55.36 -18 54 C-16.02 54 -14.04 54 -12 54 C-12 52.68 -12 51.36 -12 50 C-16.29 50 -20.58 50 -25 50 C-25 48.02 -25 46.04 -25 44 C-27.97 44 -30.94 44 -34 44 C-34.33 45.98 -34.66 47.96 -35 50 C-36.81242052 50.02687279 -38.62495233 50.04633715 -40.4375 50.0625 C-41.44683594 50.07410156 -42.45617187 50.08570313 -43.49609375 50.09765625 C-46 50 -46 50 -47 49 C-47.09946453 47.23140807 -47.13080217 45.45888549 -47.1328125 43.6875 C-47.13410156 42.61242188 -47.13539062 41.53734375 -47.13671875 40.4296875 C-47.13091797 38.73199219 -47.13091797 38.73199219 -47.125 37 C-47.12886719 35.86820313 -47.13273437 34.73640625 -47.13671875 33.5703125 C-47.13542969 32.49523438 -47.13414063 31.42015625 -47.1328125 30.3125 C-47.13168457 29.31863281 -47.13055664 28.32476563 -47.12939453 27.30078125 C-47 25 -47 25 -46 24 C-43.47905924 23.91152257 -40.98569107 23.88472699 -38.46484375 23.90234375 C-37.33496788 23.90446617 -37.33496788 23.90446617 -36.18226624 23.90663147 C-33.7673044 23.91224624 -31.35243399 23.92480117 -28.9375 23.9375 C-27.30403779 23.9425131 -25.67057414 23.94707634 -24.03710938 23.95117188 C-20.02470415 23.96222046 -16.01236759 23.97949494 -12 24 C-12 23.01 -12 22.02 -12 21 C-13.32 20.34 -14.64 19.68 -16 19 C-15.38722388 16.03824877 -14.74627478 14.61941217 -13 12 C-13.66 12 -14.32 12 -15 12 C-15.375 8.8125 -15.375 8.8125 -15 5 C-10.78132742 -0.08404131 -6.492132 -1.51920261 0 0 Z " fill="#686E69" transform="translate(51,1)"/>
<path d="M0 0 C8.58 0 17.16 0 26 0 C26 21.78 26 43.56 26 66 C4.22 66 -17.56 66 -40 66 C-40 65.67 -40 65.34 -40 65 C-19.54 65 0.92 65 22 65 C22 63.35 22 61.7 22 60 C13.75 60 5.5 60 -3 60 C-3 54 -3 54 -1 52 C1.74485593 51.85492305 4.38480543 51.81347577 7.125 51.875 C7.87910156 51.88402344 8.63320313 51.89304688 9.41015625 51.90234375 C11.27357254 51.9259313 13.13682593 51.96180281 15 52 C14.67 47.71 14.34 43.42 14 39 C14.66 39 15.32 39 16 39 C16 40.32 16 41.64 16 43 C17.98 43 19.96 43 22 43 C22 40.36 22 37.72 22 35 C18.17482487 32.60926555 14.40334476 32.44033448 10 32 C10 28 10 28 11.4375 26.4375 C11.953125 25.963125 12.46875 25.48875 13 25 C13.495 23.515 13.495 23.515 14 22 C14.99 21.34 15.98 20.68 17 20 C17.72382467 17.94074861 17.72382467 17.94074861 18 16 C17.01 15.67 16.02 15.34 15 15 C14.979375 13.783125 14.95875 12.56625 14.9375 11.3125 C14.6138799 8.7417713 14.31878325 7.37206431 12.62109375 5.390625 C8.55575734 2.29842281 5.05345006 1.3093949 0 1 C0 0.67 0 0.34 0 0 Z " fill="#FDFDFD" transform="translate(44,0)"/>
<path d="M0 0 C3.25636883 1.50757816 5.7218182 3.21360841 8 6 C8.83924668 8.77558089 8.90050112 11.06478302 9 14 C9.66 14.33 10.32 14.66 11 15 C10.67 16.65 10.34 18.3 10 20 C9.01 20.33 8.02 20.66 7 21 C6.67 22.65 6.34 24.3 6 26 C5.01 26.33 4.02 26.66 3 27 C3 28.32 3 29.64 3 31 C5.64 31 8.28 31 11 31 C11 31.33 11 31.66 11 32 C9.3603125 32.1546875 9.3603125 32.1546875 7.6875 32.3125 C4.08001834 32.62543565 4.08001834 32.62543565 2.4375 34.5625 C1 36 1 36 -2 36.375 C-5.33344843 35.95831895 -5.92103389 35.47495966 -8 33 C-8.99 32.67 -9.98 32.34 -11 32 C-11.02578125 31.22914062 -11.0515625 30.45828125 -11.078125 29.6640625 C-11.13484375 28.66117188 -11.1915625 27.65828125 -11.25 26.625 C-11.29640625 25.62726562 -11.3428125 24.62953125 -11.390625 23.6015625 C-11.72160885 20.8473523 -11.72160885 20.8473523 -14.046875 19.6484375 C-14.69140625 19.43445313 -15.3359375 19.22046875 -16 19 C-15.38722388 16.03824877 -14.74627478 14.61941217 -13 12 C-13.66 12 -14.32 12 -15 12 C-15.375 8.8125 -15.375 8.8125 -15 5 C-10.78132742 -0.08404131 -6.492132 -1.51920261 0 0 Z " fill="#FBCAA6" transform="translate(51,1)"/>
<path d="M0 0 C4 2 4 2 5 3 C7.91608998 3.33361919 7.91608998 3.33361919 11 3 C11.45375 2.505 11.9075 2.01 12.375 1.5 C14.7643332 -0.70553834 16.91571167 -0.31866073 20.0625 -0.30078125 C22 0 22 0 25 2 C25.40843923 4.71203652 25.13336867 7.2437142 25 10 C23.02 10 21.04 10 19 10 C19 8.68 19 7.36 19 6 C18.34 6 17.68 6 17 6 C17.2475 6.99 17.2475 6.99 17.5 8 C18.12104599 11.72627596 18.03096858 15.22183276 18 19 C16.87980469 19.04898438 15.75960937 19.09796875 14.60546875 19.1484375 C13.13278797 19.22347856 11.66013293 19.29902582 10.1875 19.375 C9.44951172 19.4059375 8.71152344 19.436875 7.95117188 19.46875 C4.18106885 19.67346148 2.20349259 19.86433827 -1 22 C-0.67 14.74 -0.34 7.48 0 0 Z " fill="#1799A4" transform="translate(41,33)"/>
<path d="M0 0 C0.33 0 0.66 0 1 0 C1.08107646 2.75059381 1.14052813 5.49879021 1.1875 8.25 C1.21263672 9.02730469 1.23777344 9.80460937 1.26367188 10.60546875 C1.33834499 16.42997175 1.33834499 16.42997175 -0.51171875 19.546875 C-1.00285156 20.02640625 -1.49398437 20.5059375 -2 21 C-1.01 21.33 -0.02 21.66 1 22 C1 23.65 1 25.3 1 27 C0.67 25.68 0.34 24.36 0 23 C-8.25 23 -16.5 23 -25 23 C-25 17 -25 17 -23 15 C-20.25514407 14.85492305 -17.61519457 14.81347577 -14.875 14.875 C-14.12089844 14.88402344 -13.36679687 14.89304687 -12.58984375 14.90234375 C-10.72642746 14.9259313 -8.86317407 14.96180281 -7 15 C-7.495 8.565 -7.495 8.565 -8 2 C-7.34 2 -6.68 2 -6 2 C-6 3.32 -6 4.64 -6 6 C-4.02 6 -2.04 6 0 6 C0 4.02 0 2.04 0 0 Z " fill="#EEC1A0" transform="translate(66,37)"/>
<path d="M0 0 C20.46 0 40.92 0 62 0 C62 1.32 62 2.64 62 4 C41.54 4 21.08 4 0 4 C0 2.68 0 1.36 0 0 Z " fill="#86503D" transform="translate(4,60)"/>
<path d="M0 0 C2.97 0 5.94 0 9 0 C9 1.98 9 3.96 9 6 C13.29 6 17.58 6 22 6 C22 7.32 22 8.64 22 10 C20.02 10 18.04 10 16 10 C16 11.32 16 12.64 16 14 C14.68 14 13.36 14 12 14 C12 12.68 12 11.36 12 10 C10.02 10 8.04 10 6 10 C5.67 11.65 5.34 13.3 5 15 C-0.94 15 -6.88 15 -13 15 C-13 14.67 -13 14.34 -13 14 C-10.36 14 -7.72 14 -5 14 C-4.731875 13.175 -4.46375 12.35 -4.1875 11.5 C-2.87475078 7.63084439 -1.44898716 3.82005706 0 0 Z " fill="#DCDAD8" transform="translate(17,45)"/>
<path d="M0 0 C3.27979998 1.49576285 5.76491418 3.15101061 8 6 C8.67565984 8.96864715 8.42453413 10.92212753 8 14 C5.13275314 13.42655063 4.1385485 13.1385485 2 11 C2 10.01 2 9.02 2 8 C1.03900391 8.433125 1.03900391 8.433125 0.05859375 8.875 C-5.23914432 11.14884287 -9.23372609 12.50141512 -15 12 C-15.375 8.8125 -15.375 8.8125 -15 5 C-10.78016051 -0.08544759 -6.49305713 -1.51686545 0 0 Z " fill="#885644" transform="translate(51,1)"/>
<path d="M0 0 C1.625 2.6875 1.625 2.6875 3 6 C2.1875 8.875 2.1875 8.875 1 11 C-0.43534841 11.2226746 -1.87345525 11.42761906 -3.3125 11.625 C-4.11300781 11.74101562 -4.91351563 11.85703125 -5.73828125 11.9765625 C-8 12 -8 12 -11 10 C-10.67 7.69 -10.34 5.38 -10 3 C-8.70990357 2.49596232 -7.41786211 1.99690074 -6.125 1.5 C-5.04605469 1.08234375 -5.04605469 1.08234375 -3.9453125 0.65625 C-2 0 -2 0 0 0 Z " fill="#DAA584" transform="translate(53,9)"/>
<path d="M0 0 C6.625 -0.25 6.625 -0.25 10 2 C10.40843923 4.71203652 10.13336867 7.2437142 10 10 C8.02 10 6.04 10 4 10 C4 8.68 4 7.36 4 6 C3.01 6 2.02 6 1 6 C0.67 6.99 0.34 7.98 0 9 C-0.99 8.01 -1.98 7.02 -3 6 C-2 4 -1 2 0 0 Z " fill="#129BA7" transform="translate(56,33)"/>
<path d="M0 0 C0.66 0 1.32 0 2 0 C2.33 3.3 2.66 6.6 3 10 C-3.27 10 -9.54 10 -16 10 C-15.67 8.35 -15.34 6.7 -15 5 C-13.02 5 -11.04 5 -9 5 C-9 6.32 -9 7.64 -9 9 C-7.68 9 -6.36 9 -5 9 C-5 7.68 -5 6.36 -5 5 C-3.02 5 -1.04 5 1 5 C0.67 3.35 0.34 1.7 0 0 Z " fill="#828279" transform="translate(38,50)"/>
<path d="M0 0 C3.96 0 7.92 0 12 0 C12 1.32 12 2.64 12 4 C10.02 4 8.04 4 6 4 C6 5.32 6 6.64 6 8 C4.68 8 3.36 8 2 8 C2 6.68 2 5.36 2 4 C1.01 3.67 0.02 3.34 -1 3 C-0.67 2.01 -0.34 1.02 0 0 Z " fill="#F9D2B5" transform="translate(27,51)"/>
<path d="M0 0 C0.33 0 0.66 0 1 0 C1 1.65 1 3.3 1 5 C2.60407328 5.02708567 4.2082785 5.04643483 5.8125 5.0625 C7.15248047 5.07990234 7.15248047 5.07990234 8.51953125 5.09765625 C11.13413791 5.11009967 11.13413791 5.11009967 14 4 C16.70123106 4.16011121 19.31875231 4.60440608 22 5 C22 5.33 22 5.66 22 6 C20.906875 6.103125 19.81375 6.20625 18.6875 6.3125 C15.08001834 6.62543565 15.08001834 6.62543565 13.4375 8.5625 C12 10 12 10 9 10.375 C5.66655157 9.95831895 5.07896611 9.47495966 3 7 C2.01 6.67 1.02 6.34 0 6 C0 4.02 0 2.04 0 0 Z " fill="#DAC6AC" transform="translate(40,27)"/>
<path d="M0 0 C0 3 0 3 -1.5625 5.1875 C-4.80948625 7.60192567 -7.05115643 7.3037572 -11 7 C-10.81640625 5.109375 -10.81640625 5.109375 -10 3 C-7.71484375 1.953125 -7.71484375 1.953125 -4.9375 1.25 C-4.01839844 1.00765625 -3.09929688 0.7653125 -2.15234375 0.515625 C-1.44207031 0.34546875 -0.73179688 0.1753125 0 0 Z " fill="#7B4734" transform="translate(48,5)"/>
<path d="M0 0 C1.65 0 3.3 0 5 0 C5 1.32 5 2.64 5 4 C3.02 4 1.04 4 -1 4 C-0.67 2.68 -0.34 1.36 0 0 Z " fill="#63645E" transform="translate(23,56)"/>
<path d="M0 0 C0.33 0.99 0.66 1.98 1 3 C-4.75 4.125 -4.75 4.125 -7 3 C-7 2.34 -7 1.68 -7 1 C-3.535 0.505 -3.535 0.505 0 0 Z " fill="#FDC095" transform="translate(52,29)"/>
<path d="M0 0 C2.31 0 4.62 0 7 0 C7 0.99 7 1.98 7 3 C4.69 3 2.38 3 0 3 C0 2.01 0 1.02 0 0 Z " fill="#FCB786" transform="translate(45,21)"/>
<path d="M0 0 C3.3 0.33 6.6 0.66 10 1 C9.67 1.66 9.34 2.32 9 3 C6.36 3 3.72 3 1 3 C0.67 2.01 0.34 1.02 0 0 Z " fill="#C05240" transform="translate(44,39)"/>
<path d="M0 0 C0.99 0 1.98 0 3 0 C3 1.65 3 3.3 3 5 C1.68 4.67 0.36 4.34 -1 4 C-0.67 2.68 -0.34 1.36 0 0 Z " fill="#FDBC8E" transform="translate(36,16)"/>
</svg>
