<?xml version="1.0" encoding="UTF-8"?>
<svg version="1.1" xmlns="http://www.w3.org/2000/svg" width="66" height="66">
<path d="M0 0 C21.78 0 43.56 0 66 0 C66 21.78 66 43.56 66 66 C44.22 66 22.44 66 0 66 C0 44.22 0 22.44 0 0 Z " fill="#F4E4E2" transform="translate(0,0)"/>
<path d="M0 0 C0 0.99 0 1.98 0 3 C-8.25 3 -16.5 3 -25 3 C-25.33 3.66 -25.66 4.32 -26 5 C-26.33 4.34 -26.66 3.68 -27 3 C-29.32156597 2.59270772 -31.6568787 2.25561323 -34 2 C-34.33 2.99 -34.66 3.98 -35 5 C-35 4.34 -35 3.68 -35 3 C-39.95 3 -44.9 3 -50 3 C-50 14.22 -50 25.44 -50 37 C-35.15 37 -20.3 37 -5 37 C-5 35.02 -5 33.04 -5 31 C-4.34 30.34 -3.68 29.68 -3 29 C-2.57354771 26.1404923 -2.57354771 26.1404923 -2.4375 22.9375 C-2.09722222 17.09722222 -2.09722222 17.09722222 -1 16 C0.99958364 15.95919217 3.00045254 15.95745644 5 16 C5 13.69 5 11.38 5 9 C5.99 8.67 6.98 8.34 8 8 C8.01458252 8.62567871 8.02916504 9.25135742 8.04418945 9.89599609 C8.11852804 12.72296402 8.21523234 15.54873208 8.3125 18.375 C8.34633789 19.85226563 8.34633789 19.85226563 8.38085938 21.359375 C8.41630859 22.30039062 8.45175781 23.24140625 8.48828125 24.2109375 C8.51446533 25.08024902 8.54064941 25.94956055 8.56762695 26.84521484 C8.81345218 29.38600027 8.81345218 29.38600027 12 31 C12.328125 34.22265625 12.328125 34.22265625 12.25 38.0625 C12.23453125 39.33222656 12.2190625 40.60195313 12.203125 41.91015625 C12 45 12 45 11 46 C10.76298761 48.85877909 10.57780818 51.69883297 10.4375 54.5625 C10.37272461 55.77196289 10.37272461 55.77196289 10.30664062 57.00585938 C10.20024738 59.00368805 10.09959112 61.0018207 10 63 C4.72 63 -0.56 63 -6 63 C-6.75994356 55.06281176 -7.06089337 47.89776175 -6 40 C-9.3 40 -12.6 40 -16 40 C-15.40138258 42.35171131 -14.73075648 44.6859378 -14 47 C-13.01 47.495 -13.01 47.495 -12 48 C-12 48.99 -12 49.98 -12 51 C-17.61 51 -23.22 51 -29 51 C-30.125 44.25 -30.125 44.25 -29 40 C-29.6612085 40.00523682 -30.32241699 40.01047363 -31.00366211 40.01586914 C-33.98159851 40.03657656 -36.95951982 40.04964012 -39.9375 40.0625 C-41.49887695 40.07506836 -41.49887695 40.07506836 -43.09179688 40.08789062 C-44.08115234 40.09111328 -45.07050781 40.09433594 -46.08984375 40.09765625 C-47.46450806 40.10551147 -47.46450806 40.10551147 -48.86694336 40.11352539 C-51 40 -51 40 -52 39 C-52.10103255 36.20006403 -52.13970088 33.42531356 -52.1328125 30.625 C-52.13376923 29.78533691 -52.13472595 28.94567383 -52.13571167 28.08056641 C-52.13639348 26.30175705 -52.13453917 24.52294523 -52.13037109 22.74414062 C-52.12502283 20.01166224 -52.13031605 17.27934824 -52.13671875 14.546875 C-52.13605797 12.8229163 -52.13477681 11.09895771 -52.1328125 9.375 C-52.13483673 8.55209473 -52.13686096 7.72918945 -52.13894653 6.88134766 C-52.11495054 1.11495054 -52.11495054 1.11495054 -51 0 C-48.28279962 -0.28238803 -45.6011857 -0.48240034 -42.875 -0.625 C-42.0200293 -0.67003662 -41.16505859 -0.71507324 -40.28417969 -0.76147461 C-26.86719017 -1.32265478 -13.40726215 -0.57093498 0 0 Z " fill="#F551AD" transform="translate(53,3)"/>
<path d="M0 0 C1.134375 0.020625 2.26875 0.04125 3.4375 0.0625 C4.625 2.125 4.625 2.125 5.4375 5.0625 C4.71623258 7.61062724 3.65041073 9.68332896 2.4375 12.0625 C1.1175 12.0625 -0.2025 12.0625 -1.5625 12.0625 C-1.5625 11.4025 -1.5625 10.7425 -1.5625 10.0625 C-5.03798841 10.60227565 -5.03798841 10.60227565 -8.5625 12.0625 C-10.09396378 15.06844421 -10.09396378 15.06844421 -10.5625 18.0625 C-9.2425 18.0625 -7.9225 18.0625 -6.5625 18.0625 C-6.5625 19.3825 -6.5625 20.7025 -6.5625 22.0625 C-3.7785817 20.67054085 -3.58351003 18.90674221 -2.5625 16.0625 C-0.2525 16.0625 2.0575 16.0625 4.4375 16.0625 C4.1075 19.3625 3.7775 22.6625 3.4375 26.0625 C1.19140625 26.22526042 -1.0546875 26.38802083 -3.30078125 26.55078125 C-5.97889162 26.9452572 -5.97889162 26.9452572 -8.5625 30.0625 C-2.9525 30.0625 2.6575 30.0625 8.4375 30.0625 C8.4375 27.4225 8.4375 24.7825 8.4375 22.0625 C9.0975 22.3925 9.7575 22.7225 10.4375 23.0625 C10.4375 23.7225 10.4375 24.3825 10.4375 25.0625 C12.86017086 25.11417527 12.86017086 25.11417527 15.4375 24.0625 C17.30733745 20.58942672 17.30733745 20.58942672 18.4375 17.0625 C19.91656892 17.03560784 21.39577483 17.01615379 22.875 17 C23.69871094 16.98839844 24.52242187 16.97679688 25.37109375 16.96484375 C27.4375 17.0625 27.4375 17.0625 28.4375 18.0625 C28.60546875 20.05859375 28.60546875 20.05859375 28.625 22.5 C28.63917969 23.30308594 28.65335938 24.10617188 28.66796875 24.93359375 C28.4375 27.0625 28.4375 27.0625 26.4375 29.0625 C26.1075 31.0425 25.7775 33.0225 25.4375 35.0625 C10.5875 35.0625 -4.2625 35.0625 -19.5625 35.0625 C-19.5625 23.8425 -19.5625 12.6225 -19.5625 1.0625 C-14.6125 1.0625 -9.6625 1.0625 -4.5625 1.0625 C-3.5625 0.0625 -3.5625 0.0625 0 0 Z " fill="#F4F4F6" transform="translate(22.5625,4.9375)"/>
<path d="M0 0 C6.72 0.72 6.72 0.72 8 2 C8.3125 4.875 8.3125 4.875 8 8 C7.0409375 8.7115625 7.0409375 8.7115625 6.0625 9.4375 C3.58604367 10.95611663 3.58604367 10.95611663 3.25 14.6875 C3.1675 15.780625 3.085 16.87375 3 18 C2.05125 18.103125 1.1025 18.20625 0.125 18.3125 C-3.29107501 18.68539295 -3.29107501 18.68539295 -5 22 C-7.97 21.67 -10.94 21.34 -14 21 C-14.309375 22.134375 -14.61875 23.26875 -14.9375 24.4375 C-16 28 -16 28 -17 29 C-18.66617115 29.04063832 -20.33388095 29.042721 -22 29 C-22.33 28.34 -22.66 27.68 -23 27 C-23.33 29.31 -23.66 31.62 -24 34 C-29.61 34 -35.22 34 -41 34 C-40.67 33.01 -40.34 32.02 -40 31 C-36.57067929 29.28533964 -32.78283935 29.94595944 -29 30 C-28.67 26.7 -28.34 23.4 -28 20 C-30.31 20.33 -32.62 20.66 -35 21 C-35.99 23.475 -35.99 23.475 -37 26 C-37.66 26 -38.32 26 -39 26 C-39 24.68 -39 23.36 -39 22 C-40.32 22 -41.64 22 -43 22 C-43.22223194 19.25913944 -43.34781139 17.56036279 -41.875 15.1875 C-39.22464043 13.50893894 -37.06753576 13.79549762 -34 14 C-34 14.66 -34 15.32 -34 16 C-32.68 16 -31.36 16 -30 16 C-29.87625 15.113125 -29.7525 14.22625 -29.625 13.3125 C-29 10 -29 10 -27 5 C-18.75 5 -10.5 5 -2 5 C-1.67 3.68 -1.34 2.36 -1 1 C-0.67 0.67 -0.34 0.34 0 0 Z " fill="#F4F6F6" transform="translate(55,1)"/>
<path d="M0 0 C21.78 0 43.56 0 66 0 C66 21.78 66 43.56 66 66 C65.01 66 64.02 66 63 66 C62.97315688 63.18743719 62.95323812 60.37512759 62.9375 57.5625 C62.92912109 56.76005859 62.92074219 55.95761719 62.91210938 55.13085938 C62.9034857 53.08704779 62.9477185 51.04316098 63 49 C63.33 48.67 63.66 48.34 64 48 C64.23527773 45.65012738 64.41386417 43.29443961 64.5625 40.9375 C64.68818359 39.00197266 64.68818359 39.00197266 64.81640625 37.02734375 C64.87699219 36.02832031 64.93757813 35.02929688 65 34 C63.68 33.34 62.36 32.68 61 32 C60.97112488 28.35418313 60.95324415 24.70839537 60.9375 21.0625 C60.92912109 20.02158203 60.92074219 18.98066406 60.91210938 17.90820312 C60.90888672 16.91884766 60.90566406 15.92949219 60.90234375 14.91015625 C60.89710693 13.99371338 60.89187012 13.07727051 60.88647461 12.13305664 C61 10 61 10 62 9 C62.04080783 7.00041636 62.04254356 4.99954746 62 3 C59.6739143 2.61936779 57.33944736 2.28730055 55 2 C54.67 2.33 54.34 2.66 54 3 C51.86974665 3.07610086 49.73698269 3.08296936 47.60546875 3.0625 C46.25195377 3.05393417 44.89843811 3.04547493 43.54492188 3.03710938 C42.83263428 3.03090576 42.12034668 3.02470215 41.38647461 3.01831055 C28.21309575 2.90861771 15.1540464 3.1778721 2 4 C2 16.54 2 29.08 2 42 C9.26 42.33 16.52 42.66 24 43 C24 44.65 24 46.3 24 48 C21.69 48.66 19.38 49.32 17 50 C17 49.34 17 48.68 17 48 C11.06 48.495 11.06 48.495 5 49 C5 54.61 5 60.22 5 66 C3.35 66 1.7 66 0 66 C0 44.22 0 22.44 0 0 Z " fill="#FEFBFA" transform="translate(0,0)"/>
<path d="M0 0 C0 0.99 0 1.98 0 3 C-8.25 3 -16.5 3 -25 3 C-25.33 3.66 -25.66 4.32 -26 5 C-26.33 4.34 -26.66 3.68 -27 3 C-29.32156597 2.59270772 -31.6568787 2.25561323 -34 2 C-34.33 2.99 -34.66 3.98 -35 5 C-35 4.34 -35 3.68 -35 3 C-39.95 3 -44.9 3 -50 3 C-50 14.22 -50 25.44 -50 37 C-35.15 37 -20.3 37 -5 37 C-5 37.99 -5 38.98 -5 40 C-8.63 40 -12.26 40 -16 40 C-15.40138258 42.35171131 -14.73075648 44.6859378 -14 47 C-13.01 47.495 -13.01 47.495 -12 48 C-12 48.99 -12 49.98 -12 51 C-17.61 51 -23.22 51 -29 51 C-30.125 44.25 -30.125 44.25 -29 40 C-29.6612085 40.00523682 -30.32241699 40.01047363 -31.00366211 40.01586914 C-33.98159851 40.03657656 -36.95951982 40.04964012 -39.9375 40.0625 C-41.49887695 40.07506836 -41.49887695 40.07506836 -43.09179688 40.08789062 C-44.08115234 40.09111328 -45.07050781 40.09433594 -46.08984375 40.09765625 C-47.46450806 40.10551147 -47.46450806 40.10551147 -48.86694336 40.11352539 C-51 40 -51 40 -52 39 C-52.10103255 36.20006403 -52.13970088 33.42531356 -52.1328125 30.625 C-52.13376923 29.78533691 -52.13472595 28.94567383 -52.13571167 28.08056641 C-52.13639348 26.30175705 -52.13453917 24.52294523 -52.13037109 22.74414062 C-52.12502283 20.01166224 -52.13031605 17.27934824 -52.13671875 14.546875 C-52.13605797 12.8229163 -52.13477681 11.09895771 -52.1328125 9.375 C-52.13483673 8.55209473 -52.13686096 7.72918945 -52.13894653 6.88134766 C-52.11495054 1.11495054 -52.11495054 1.11495054 -51 0 C-48.28279962 -0.28238803 -45.6011857 -0.48240034 -42.875 -0.625 C-42.0200293 -0.67003662 -41.16505859 -0.71507324 -40.28417969 -0.76147461 C-26.86719017 -1.32265478 -13.40726215 -0.57093498 0 0 Z " fill="#2E4169" transform="translate(53,3)"/>
<path d="M0 0 C2.31 0 4.62 0 7 0 C8.1875 2.0625 8.1875 2.0625 9 5 C8.27873258 7.54812724 7.21291073 9.62082896 6 12 C4.68 12 3.36 12 2 12 C2 11.34 2 10.68 2 10 C-1.47548841 10.53977565 -1.47548841 10.53977565 -5 12 C-6.53146378 15.00594421 -6.53146378 15.00594421 -7 18 C-5.68 18 -4.36 18 -3 18 C-3 19.32 -3 20.64 -3 22 C-0.2160817 20.60804085 -0.02101003 18.84424221 1 16 C3.31 16 5.62 16 8 16 C7.67 19.3 7.34 22.6 7 26 C4.75390625 26.16276042 2.5078125 26.32552083 0.26171875 26.48828125 C-2.07913724 26.79250613 -2.07913724 26.79250613 -3.41796875 28.54296875 C-5 30 -5 30 -11 30 C-11 22.08 -11 14.16 -11 6 C-7.7 6 -4.4 6 -1 6 C-0.67 4.02 -0.34 2.04 0 0 Z " fill="#EFE6F7" transform="translate(19,5)"/>
<path d="M0 0 C3.3 0 6.6 0 10 0 C10 7.59 10 15.18 10 23 C2.41 23 -5.18 23 -13 23 C-12.01 22.67 -11.02 22.34 -10 22 C-10.66 18.7 -11.32 15.4 -12 12 C-6.39 12 -0.78 12 5 12 C5 10.68 5 9.36 5 8 C3.68 7.67 2.36 7.34 1 7 C0.67 4.69 0.34 2.38 0 0 Z " fill="#FDFDFD" transform="translate(37,43)"/>
<path d="M0 0 C0 0.66 0 1.32 0 2 C1.32 2 2.64 2 4 2 C4 1.34 4 0.68 4 0 C9.41139241 -0.36075949 9.41139241 -0.36075949 11.9375 1.1875 C13 3 13 3 12.8125 5.5625 C12 8 12 8 10 10 C9.75712511 12.44012949 9.75712511 12.44012949 9.875 15.125 C9.91625 16.73375 9.9575 18.3425 10 20 C4.39 20 -1.22 20 -7 20 C-6.67 19.01 -6.34 18.02 -6 17 C-2.57067929 15.28533964 1.21716065 15.94595944 5 16 C5.33 12.7 5.66 9.4 6 6 C3.69 6.33 1.38 6.66 -1 7 C-1.66 8.65 -2.32 10.3 -3 12 C-3.66 12 -4.32 12 -5 12 C-5 10.68 -5 9.36 -5 8 C-6.32 8 -7.64 8 -9 8 C-9.22223194 5.25913944 -9.34781139 3.56036279 -7.875 1.1875 C-5.22464043 -0.49106106 -3.06753576 -0.20450238 0 0 Z " fill="#895DCB" transform="translate(21,15)"/>
<path d="M0 0 C0.66 0 1.32 0 2 0 C2.02505615 0.60473145 2.0501123 1.20946289 2.07592773 1.83251953 C2.19263006 4.5968562 2.31501734 7.36091366 2.4375 10.125 C2.47681641 11.07632812 2.51613281 12.02765625 2.55664062 13.0078125 C2.77053023 17.74628987 3.06561821 22.33594301 4 27 C-3.42857143 28.28571429 -3.42857143 28.28571429 -7 27 C-8.18403115 23.26936216 -8.13306789 19.70525834 -8.125 15.8125 C-8.12757812 14.56082031 -8.13015625 13.30914062 -8.1328125 12.01953125 C-8 9 -8 9 -7 8 C-5.00041636 7.95919217 -2.99954746 7.95745644 -1 8 C-1.020625 6.865625 -1.04125 5.73125 -1.0625 4.5625 C-1 1 -1 1 0 0 Z " fill="#36373B" transform="translate(59,11)"/>
<path d="M0 0 C7.92 0.33 15.84 0.66 24 1 C24 2.65 24 4.3 24 6 C21.69 6.66 19.38 7.32 17 8 C17 7.34 17 6.68 17 6 C11.06 6.495 11.06 6.495 5 7 C5 12.61 5 18.22 5 24 C3.35 24 1.7 24 0 24 C0 16.08 0 8.16 0 0 Z " fill="#FDFCFC" transform="translate(0,42)"/>
<path d="M0 0 C0.99 0.33 1.98 0.66 3 1 C3 20.8 3 40.6 3 61 C2.01 61 1.02 61 0 61 C-0.02684312 58.18743719 -0.04676188 55.37512759 -0.0625 52.5625 C-0.07506836 51.35883789 -0.07506836 51.35883789 -0.08789062 50.13085938 C-0.0965143 48.08704779 -0.0522815 46.04316098 0 44 C0.495 43.505 0.495 43.505 1 43 C1.23527773 40.65012738 1.41386417 38.29443961 1.5625 35.9375 C1.64628906 34.64714844 1.73007813 33.35679688 1.81640625 32.02734375 C1.87699219 31.02832031 1.93757813 30.02929688 2 29 C0.68 28.34 -0.64 27.68 -2 27 C-2.05827558 23.4375692 -2.09368885 19.87526181 -2.125 16.3125 C-2.14175781 15.30509766 -2.15851562 14.29769531 -2.17578125 13.25976562 C-2.18544922 11.79506836 -2.18544922 11.79506836 -2.1953125 10.30078125 C-2.20578613 9.40528564 -2.21625977 8.50979004 -2.22705078 7.5871582 C-1.97703456 4.73831743 -1.18016512 2.59105457 0 0 Z " fill="#FAF2F4" transform="translate(63,5)"/>
<path d="M0 0 C1.79133978 -0.05391993 3.58313899 -0.09275571 5.375 -0.125 C6.37273438 -0.14820313 7.37046875 -0.17140625 8.3984375 -0.1953125 C11 0 11 0 13 2 C13.165 2.845625 13.33 3.69125 13.5 4.5625 C13.665 5.366875 13.83 6.17125 14 7 C14.66 7.33 15.32 7.66 16 8 C16 8.99 16 9.98 16 11 C10.39 11 4.78 11 -1 11 C-2.125 4.25 -2.125 4.25 0 0 Z " fill="#0E1529" transform="translate(25,43)"/>
<path d="M0 0 C0.33 0.99 0.66 1.98 1 3 C2.32 3 3.64 3 5 3 C5 4.32 5 5.64 5 7 C7.7839183 5.60804085 7.97898997 3.84424221 9 1 C11.31 1 13.62 1 16 1 C15.67 4.3 15.34 7.6 15 11 C12.78645833 11.22786458 10.57291667 11.45572917 8.359375 11.68359375 C6.00462654 11.93490397 6.00462654 11.93490397 3.828125 12.66015625 C2.92320313 12.82837891 2.92320313 12.82837891 2 13 C0 11 0 11 -0.1953125 8.3984375 C-0.17210937 7.40070312 -0.14890625 6.40296875 -0.125 5.375 C-0.10695313 4.37210938 -0.08890625 3.36921875 -0.0703125 2.3359375 C-0.04710937 1.56507812 -0.02390625 0.79421875 0 0 Z " fill="#F4B7B3" transform="translate(11,20)"/>
<path d="M0 0 C0 0.99 0 1.98 0 3 C-8.25 3 -16.5 3 -25 3 C-25.33 3.66 -25.66 4.32 -26 5 C-26.33 4.34 -26.66 3.68 -27 3 C-29.32156597 2.59270772 -31.6568787 2.25561323 -34 2 C-34.33 2.99 -34.66 3.98 -35 5 C-35 3.68 -35 2.36 -35 1 C-40.28 1 -45.56 1 -51 1 C-51 0.67 -51 0.34 -51 0 C-33.95198706 -1.31762288 -17.05778483 -0.72638887 0 0 Z " fill="#414E68" transform="translate(53,3)"/>
<path d="M0 0 C4.95 0 9.9 0 15 0 C15 1.98 15 3.96 15 6 C14.01 6.495 14.01 6.495 13 7 C12.01 8.485 12.01 8.485 11 10 C8.36 9.67 5.72 9.34 3 9 C3.33 7.35 3.66 5.7 4 4 C2.68 4.33 1.36 4.66 0 5 C0 3.35 0 1.7 0 0 Z " fill="#6ACDAD" transform="translate(39,13)"/>
<path d="M0 0 C3.568125 -0.04125 7.13625 -0.0825 10.8125 -0.125 C11.93374268 -0.14320801 13.05498535 -0.16141602 14.21020508 -0.18017578 C15.53894653 -0.18766846 15.53894653 -0.18766846 16.89453125 -0.1953125 C17.80050049 -0.20578613 18.70646973 -0.21625977 19.63989258 -0.22705078 C22 -0 22 -0 25 2 C22.2097333 2.9300889 20.23470458 3.18698769 17.33203125 3.31640625 C16.52741455 3.35451416 15.72279785 3.39262207 14.89379883 3.43188477 C13.36855591 3.49653931 13.36855591 3.49653931 11.8125 3.5625 C6.9553125 3.7790625 6.9553125 3.7790625 2 4 C1.67 16.54 1.34 29.08 1 42 C0.67 42 0.34 42 0 42 C0 28.14 0 14.28 0 0 Z " fill="#DFE1E7" transform="translate(0,0)"/>
<path d="M0 0 C0.33 1.65 0.66 3.3 1 5 C6.61 5 12.22 5 18 5 C18.33 4.01 18.66 3.02 19 2 C19 3.32 19 4.64 19 6 C13.39 6 7.78 6 2 6 C2.33 8.31 2.66 10.62 3 13 C1.02 13.33 -0.96 13.66 -3 14 C-3.50512244 12.39743892 -4.00391627 10.79288208 -4.5 9.1875 C-4.7784375 8.29417969 -5.056875 7.40085937 -5.34375 6.48046875 C-6 4 -6 4 -6 1 C-4 0 -4 0 0 0 Z " fill="#69B1A7" transform="translate(23,49)"/>
<path d="M0 0 C5.61 0 11.22 0 17 0 C17 0.66 17 1.32 17 2 C12.05 2 7.1 2 2 2 C2 13.55 2 25.1 2 37 C1.01 37.495 1.01 37.495 0 38 C0 25.46 0 12.92 0 0 Z " fill="#162C5A" transform="translate(1,4)"/>
<path d="M0 0 C6.875 0.875 6.875 0.875 8 2 C8.3125 4.875 8.3125 4.875 8 8 C6.3125 9.9375 6.3125 9.9375 4 11 C1.375 11 1.375 11 -1 10 C-2.5 7.75 -2.5 7.75 -3 5 C-1.625 2.1875 -1.625 2.1875 0 0 Z " fill="#FEB310" transform="translate(55,1)"/>
<path d="M0 0 C1.98 0 3.96 0 6 0 C6 4.95 6 9.9 6 15 C4.02 15 2.04 15 0 15 C0 10.05 0 5.1 0 0 Z " fill="#F64EB1" transform="translate(11,48)"/>
<path d="M0 0 C1.98 0 3.96 0 6 0 C6 4.95 6 9.9 6 15 C4.02 15 2.04 15 0 15 C0 10.05 0 5.1 0 0 Z " fill="#FEBE2C" transform="translate(5,48)"/>
<path d="M0 0 C0.33 0 0.66 0 1 0 C1 3.3 1 6.6 1 10 C-4.61 10 -10.22 10 -16 10 C-15.67 9.01 -15.34 8.02 -15 7 C-12.59454362 5.79727181 -11.05003047 5.89928528 -8.375 5.9375 C-7.14910156 5.95103516 -7.14910156 5.95103516 -5.8984375 5.96484375 C-4.95871094 5.98224609 -4.95871094 5.98224609 -4 6 C-4 4.68 -4 3.36 -4 2 C-3.01 2.33 -2.02 2.66 -1 3 C-0.67 2.01 -0.34 1.02 0 0 Z " fill="#9169D0" transform="translate(30,25)"/>
<path d="M0 0 C-0.60745397 4.85963179 -2.72758967 8.7405518 -5 13 C-6.65 13 -8.3 13 -10 13 C-10.99 11.02 -11.98 9.04 -13 7 C-11.35 5.68 -9.7 4.36 -8 3 C-8 4.32 -8 5.64 -8 7 C-7.34 7 -6.68 7 -6 7 C-5.566875 5.5459375 -5.566875 5.5459375 -5.125 4.0625 C-3.88188811 0.6784732 -3.56000107 0 0 0 Z " fill="#F9C0B7" transform="translate(43,17)"/>
<path d="M0 0 C2.31 0 4.62 0 7 0 C8.1875 2.0625 8.1875 2.0625 9 5 C8.27873258 7.54812724 7.21291073 9.62082896 6 12 C4.68 12 3.36 12 2 12 C1.46809459 10.56656 0.94984742 9.12804633 0.4375 7.6875 C0.14746094 6.88699219 -0.14257812 6.08648437 -0.44140625 5.26171875 C-1 3 -1 3 0 0 Z " fill="#F3B6AA" transform="translate(19,5)"/>
<path d="M0 0 C0.33 0.66 0.66 1.32 1 2 C2.05960938 1.98839844 3.11921875 1.97679687 4.2109375 1.96484375 C5.59895658 1.95546524 6.98697755 1.94636511 8.375 1.9375 C9.07367188 1.92912109 9.77234375 1.92074219 10.4921875 1.91210938 C15.7734375 1.88671875 15.7734375 1.88671875 18 3 C18 3.99 18 4.98 18 6 C12.39 6 6.78 6 1 6 C0.67 4.02 0.34 2.04 0 0 Z " fill="#182E57" transform="translate(23,48)"/>
<path d="M0 0 C2.97 0.33 5.94 0.66 9 1 C9.33 5.29 9.66 9.58 10 14 C9.34 14 8.68 14 8 14 C7.649375 12.88625 7.29875 11.7725 6.9375 10.625 C6.19669368 8.66818521 6.19669368 8.66818521 5 7 C1.44107712 5.46954015 1.44107712 5.46954015 -2 5 C-1.34 3.35 -0.68 1.7 0 0 Z " fill="#EFE5F6" transform="translate(27,10)"/>
<path d="M0 0 C0.33 1.32 0.66 2.64 1 4 C1.66 4 2.32 4 3 4 C3.02689216 5.47906892 3.04634621 6.95827483 3.0625 8.4375 C3.07410156 9.26121094 3.08570313 10.08492187 3.09765625 10.93359375 C3 13 3 13 2 14 C1.76924918 15.34747084 1.58846937 16.70377565 1.4375 18.0625 C1.293125 19.361875 1.14875 20.66125 1 22 C5.95 22 10.9 22 16 22 C16 22.33 16 22.66 16 23 C10.72 23 5.44 23 0 23 C-0.75478543 15.11668552 -1.15049188 7.84104469 0 0 Z " fill="#FC9EBB" transform="translate(47,43)"/>
<path d="M0 0 C1.4540625 0.0309375 1.4540625 0.0309375 2.9375 0.0625 C2.9375 2.0425 2.9375 4.0225 2.9375 6.0625 C1.9475 6.5575 1.9475 6.5575 0.9375 7.0625 C-0.0525 8.5475 -0.0525 8.5475 -1.0625 10.0625 C-2.0525 9.7325 -3.0425 9.4025 -4.0625 9.0625 C-4.16015625 2.91015625 -4.16015625 2.91015625 -4.0625 1.0625 C-3.0625 0.0625 -3.0625 0.0625 0 0 Z " fill="#53BE9F" transform="translate(51.0625,12.9375)"/>
<path d="M0 0 C1.134375 0.020625 2.26875 0.04125 3.4375 0.0625 C3.1075 3.3625 2.7775 6.6625 2.4375 10.0625 C0.1275 10.0625 -2.1825 10.0625 -4.5625 10.0625 C-2.22916667 7.72916667 0.10416667 5.39583333 2.4375 3.0625 C0.7875 2.7325 -0.8625 2.4025 -2.5625 2.0625 C-2.8925 3.0525 -3.2225 4.0425 -3.5625 5.0625 C-4.125 3.125 -4.125 3.125 -4.5625 1.0625 C-3.5625 0.0625 -3.5625 0.0625 0 0 Z " fill="#F2EBF5" transform="translate(23.5625,20.9375)"/>
<path d="M0 0 C0.125 5.75 0.125 5.75 -1 8 C-3.375 7.8125 -3.375 7.8125 -6 7 C-7.3125 4.4375 -7.3125 4.4375 -8 2 C-7.38125 1.855625 -6.7625 1.71125 -6.125 1.5625 C-0.22222222 0 -0.22222222 0 0 0 Z " fill="#FDB51B" transform="translate(60,4)"/>
<path d="M0 0 C0.99 0.495 0.99 0.495 2 1 C2 1.66 2 2.32 2 3 C3.32 3.33 4.64 3.66 6 4 C5.67 5.32 5.34 6.64 5 8 C3.35 8 1.7 8 0 8 C0 5.36 0 2.72 0 0 Z " fill="#EEE3F5" transform="translate(31,27)"/>
<path d="M0 0 C1.32 0 2.64 0 4 0 C4.84098656 4.01804691 5.05404945 7.01803543 4 11 C1.23522547 8.23522547 1.47541559 5.8033247 1 2 C0.67 1.34 0.34 0.68 0 0 Z " fill="#81D7BD" transform="translate(19,49)"/>
<path d="M0 0 C0.33 0 0.66 0 1 0 C1 1.65 1 3.3 1 5 C-0.98 5.33 -2.96 5.66 -5 6 C-5.33 5.01 -5.66 4.02 -6 3 C-4.02 2.67 -2.04 2.34 0 2 C0 1.34 0 0.68 0 0 Z " fill="#E2E4F2" transform="translate(26,60)"/>
<path d="M0 0 C1.65 0 3.3 0 5 0 C4.01 0.495 4.01 0.495 3 1 C3 2.98 3 4.96 3 7 C2.34 6.67 1.68 6.34 1 6 C0.375 2.9375 0.375 2.9375 0 0 Z " fill="#63C4A9" transform="translate(17,50)"/>
<path d="M0 0 C0 1.65 0 3.3 0 5 C-2.475 4.01 -2.475 4.01 -5 3 C-2.25 0 -2.25 0 0 0 Z " fill="#FFF2D7" transform="translate(60,4)"/>
</svg>
