<?xml version="1.0" encoding="UTF-8"?>
<svg version="1.1" xmlns="http://www.w3.org/2000/svg" width="66" height="66">
<path d="M0 0 C1.890625 0.26953125 1.890625 0.26953125 4.25 0.8125 C5.40242188 1.06966797 5.40242188 1.06966797 6.578125 1.33203125 C9 2 9 2 11.40234375 3.09765625 C14.61576609 4.21389769 16.94575534 3.99497194 20.3125 3.625 C21.38113281 3.51414062 22.44976562 3.40328125 23.55078125 3.2890625 C24.76314453 3.14597656 24.76314453 3.14597656 26 3 C26 2.34 26 1.68 26 1 C27.9914056 0.61866701 29.99279077 0.28674418 32 0 C33 1 33 1 33.0625 4.0625 C33.041875 5.031875 33.02125 6.00125 33 7 C33.61488281 7.12117187 34.22976562 7.24234375 34.86328125 7.3671875 C35.67152344 7.53476563 36.47976562 7.70234375 37.3125 7.875 C38.11300781 8.03742187 38.91351563 8.19984375 39.73828125 8.3671875 C42 9 42 9 45 11 C45.2667616 13.76628915 45.34804189 16.30619631 45.29296875 19.0703125 C45.28872391 19.86654022 45.28447906 20.66276794 45.28010559 21.48312378 C45.26328834 24.03075729 45.22563179 26.57760489 45.1875 29.125 C45.17245705 30.85024901 45.15876796 32.57551039 45.14648438 34.30078125 C45.11337501 38.53415782 45.06157285 42.76694559 45 47 C46.32 47.66 47.64 48.32 49 49 C49.125 52.375 49.125 52.375 49 56 C46.29658085 58.70341915 44.89415955 58.25327453 41.11328125 58.25878906 C39.87860107 58.26509338 38.6439209 58.27139771 37.37182617 58.27789307 C36.018716 58.27431338 34.66560713 58.27021145 33.3125 58.265625 C31.93009371 58.26697175 30.54768787 58.26891236 29.1652832 58.27142334 C26.26671849 58.27437418 23.36827697 58.27007836 20.46972656 58.26074219 C16.75039363 58.24934755 13.03134932 58.25590725 9.31202698 58.26788712 C6.45704973 58.27510688 3.60214115 58.27281728 0.74716187 58.26763153 C-0.62440017 58.26629535 -1.99596839 58.26794166 -3.36752319 58.27259064 C-5.2827747 58.27765748 -7.19804801 58.26856831 -9.11328125 58.25878906 C-10.20423096 58.25719788 -11.29518066 58.25560669 -12.41918945 58.25396729 C-15 58 -15 58 -17 56 C-17.125 52.375 -17.125 52.375 -17 49 C-15.68 48.34 -14.36 47.68 -13 47 C-13.01571045 45.91992676 -13.0314209 44.83985352 -13.04760742 43.72705078 C-13.10182234 39.7277774 -13.13631904 35.72853662 -13.16479492 31.72900391 C-13.1799009 29.99652651 -13.20038694 28.26408746 -13.22631836 26.53173828 C-13.26262321 24.04450022 -13.27970765 21.55776674 -13.29296875 19.0703125 C-13.30845261 18.29317902 -13.32393646 17.51604553 -13.33988953 16.71536255 C-13.34057617 14.53173828 -13.34057617 14.53173828 -13 11 C-10.14521674 9.09681116 -8.58058692 8.5380901 -5.3125 7.875 C-4.50425781 7.70742187 -3.69601562 7.53984375 -2.86328125 7.3671875 C-2.24839844 7.24601563 -1.63351562 7.12484375 -1 7 C-1.020625 6.030625 -1.04125 5.06125 -1.0625 4.0625 C-1 1 -1 1 0 0 Z " fill="#0B1011" transform="translate(17,4)"/>
<path d="M0 0 C1.890625 0.26953125 1.890625 0.26953125 4.25 0.8125 C5.07113281 1.00070313 5.89226563 1.18890625 6.73828125 1.3828125 C9 2 9 2 11.4375 3.1875 C15.611003 4.51080583 19.72314271 3.61453872 24 3 C24 3.66 24 4.32 24 5 C21.69 5.66 19.38 6.32 17 7 C17.33 14.92 17.66 22.84 18 31 C23.61 31.33 29.22 31.66 35 32 C35 26.72 35 21.44 35 16 C36.65 16 38.3 16 40 16 C40 25.9 40 35.8 40 46 C23.83 46 7.66 46 -9 46 C-9 35.44 -9 24.88 -9 14 C-7.35 14 -5.7 14 -4 14 C-4 13.34 -4 12.68 -4 12 C-5.98 12.33 -7.96 12.66 -10 13 C-10.33 14.65 -10.66 16.3 -11 18 C-11.66 18 -12.32 18 -13 18 C-13.1875 14.625 -13.1875 14.625 -13 11 C-10.14521674 9.09681116 -8.58058692 8.5380901 -5.3125 7.875 C-4.50425781 7.70742187 -3.69601562 7.53984375 -2.86328125 7.3671875 C-2.24839844 7.24601563 -1.63351562 7.12484375 -1 7 C-1.020625 6.030625 -1.04125 5.06125 -1.0625 4.0625 C-1 1 -1 1 0 0 Z " fill="#161D20" transform="translate(17,4)"/>
<path d="M0 0 C0.99 0 1.98 0 3 0 C3.33 5.28 3.66 10.56 4 16 C16.21 16 28.42 16 41 16 C41.33 10.72 41.66 5.44 42 0 C42.99 0 43.98 0 45 0 C45 9.24 45 18.48 45 28 C30.15 28 15.3 28 0 28 C0 18.76 0 9.52 0 0 Z " fill="#B6F6FD" transform="translate(10,20)"/>
<path d="M0 0 C5 1 5 1 14 4 C14 11.59 14 19.18 14 27 C5 25 5 25 0 23 C0 15.41 0 7.82 0 0 Z " fill="#E4E4E4" transform="translate(18,7)"/>
<path d="M0 0 C1.98 0 3.96 0 6 0 C6 7.59 6 15.18 6 23 C-4.75 27 -4.75 27 -7 27 C-7 19.41 -7 11.82 -7 4 C-4.69 3.34 -2.38 2.68 0 2 C0 1.34 0 0.68 0 0 Z " fill="#DEDEDE" transform="translate(41,7)"/>
<path d="M0 0 C0.99 0 1.98 0 3 0 C3.33 5.28 3.66 10.56 4 16 C5.65 16.33 7.3 16.66 9 17 C9 17.66 9 18.32 9 19 C17.91 19 26.82 19 36 19 C36 19.99 36 20.98 36 22 C33.03 22.33 30.06 22.66 27 23 C27.33 23.99 27.66 24.98 28 26 C25.3178719 27.34106405 23.11601968 27.21450419 20.1171875 27.31640625 C18.54106689 27.37356812 18.54106689 27.37356812 16.93310547 27.43188477 C14.92434326 27.49653931 14.92434326 27.49653931 12.875 27.5625 C8.62625 27.706875 4.3775 27.85125 0 28 C0 18.76 0 9.52 0 0 Z " fill="#80A9AE" transform="translate(10,20)"/>
<path d="M0 0 C1.98 0 3.96 0 6 0 C6 0.66 6 1.32 6 2 C4.35 2 2.7 2 1 2 C1 12.56 1 23.12 1 34 C17.17 34 33.34 34 50 34 C50 23.44 50 12.88 50 2 C48.35 2 46.7 2 45 2 C45 1.34 45 0.68 45 0 C47.31 0 49.62 0 52 0 C52 11.88 52 23.76 52 36 C44.61267325 36.02290249 37.22546868 36.04283157 29.83813477 36.05493164 C27.32283105 36.05997363 24.80753028 36.06680703 22.29223633 36.07543945 C18.68570225 36.08751094 15.07920677 36.09322949 11.47265625 36.09765625 C9.77424339 36.10539818 9.77424339 36.10539818 8.04151917 36.11329651 C7.00051559 36.11337204 5.95951202 36.11344757 4.88696289 36.11352539 C3.50463219 36.11685631 3.50463219 36.11685631 2.09437561 36.12025452 C0 36 0 36 -1 35 C-1.35705751 30.96278638 -1.47000884 26.91399791 -1.61254883 22.86401367 C-1.68657825 20.83772954 -1.77744089 18.81266021 -1.86914062 16.78710938 C-1.91619141 15.50255859 -1.96324219 14.21800781 -2.01171875 12.89453125 C-2.05772217 11.71737549 -2.10372559 10.54021973 -2.15112305 9.32739258 C-1.99401366 5.86819405 -1.24997358 3.21365063 0 0 Z " fill="#3F7997" transform="translate(7,16)"/>
<path d="M0 0 C0.66 0 1.32 0 2 0 C2.33 9.57 2.66 19.14 3 29 C1.68 29.33 0.36 29.66 -1 30 C-1.33 31.32 -1.66 32.64 -2 34 C10.87 34 23.74 34 37 34 C37.495 35.98 37.495 35.98 38 38 C32.34001954 38.04934926 26.68016364 38.08569529 21.02001953 38.10986328 C19.09356506 38.11993582 17.16712592 38.13359443 15.24072266 38.15087891 C12.47554748 38.17507241 9.710574 38.18647036 6.9453125 38.1953125 C6.0806839 38.20563507 5.2160553 38.21595764 4.32522583 38.22659302 C2.21546479 38.22699106 0.10619282 38.12265243 -2 38 C-4 36 -4 36 -4.125 32.375 C-4.08375 31.26125 -4.0425 30.1475 -4 29 C-2.68 28.34 -1.36 27.68 0 27 C0 18.09 0 9.18 0 0 Z " fill="#111619" transform="translate(4,24)"/>
<path d="M0 0 C7.92 0 15.84 0 24 0 C24.33 0.66 24.66 1.32 25 2 C28.63 2 32.26 2 36 2 C36.33 1.34 36.66 0.68 37 0 C44.92 0 52.84 0 61 0 C61 1.32 61 2.64 61 4 C54.73 4 48.46 4 42 4 C42 4.99 42 5.98 42 7 C41.34 7 40.68 7 40 7 C39.505 6.01 39.505 6.01 39 5 C19.695 4.505 19.695 4.505 0 4 C0 2.68 0 1.36 0 0 Z " fill="#A0D0E8" transform="translate(2,54)"/>
<path d="M0 0 C1.890625 0.26953125 1.890625 0.26953125 4.25 0.8125 C5.07113281 1.00070313 5.89226563 1.18890625 6.73828125 1.3828125 C9 2 9 2 11.4375 3.1875 C15.611003 4.51080583 19.72314271 3.61453872 24 3 C24 3.66 24 4.32 24 5 C18.85892674 7.49264158 14.59550474 7.80562225 9.10546875 6.1015625 C6.38534331 5.11687011 3.69052025 4.06292158 1 3 C1 10.59 1 18.18 1 26 C6.445 27.485 6.445 27.485 12 29 C11.01 29.66 10.02 30.32 9 31 C5.48619351 30.03716169 2.3438041 28.47648493 -1 27 C-1 21.06 -1 15.12 -1 9 C-1.66 9 -2.32 9 -3 9 C-3 9.99 -3 10.98 -3 12 C-5.31 12.33 -7.62 12.66 -10 13 C-10.33 14.65 -10.66 16.3 -11 18 C-11.66 18 -12.32 18 -13 18 C-13.1875 14.625 -13.1875 14.625 -13 11 C-10.14521674 9.09681116 -8.58058692 8.5380901 -5.3125 7.875 C-4.50425781 7.70742187 -3.69601562 7.53984375 -2.86328125 7.3671875 C-2.24839844 7.24601563 -1.63351562 7.12484375 -1 7 C-1.020625 6.030625 -1.04125 5.06125 -1.0625 4.0625 C-1 1 -1 1 0 0 Z " fill="#190D0A" transform="translate(17,4)"/>
<path d="M0 0 C0.66 0 1.32 0 2 0 C2.33 7.92 2.66 15.84 3 24 C8.28 24.33 13.56 24.66 19 25 C19 25.33 19 25.66 19 26 C6.79 26 -5.42 26 -18 26 C-17.67 18.08 -17.34 10.16 -17 2 C-16.67 2 -16.34 2 -16 2 C-16 7.94 -16 13.88 -16 20 C-14.288125 20.495 -12.57625 20.99 -10.8125 21.5 C-9.84957031 21.7784375 -8.88664062 22.056875 -7.89453125 22.34375 C-4.68195773 23.18425759 -4.68195773 23.18425759 0 23 C0 15.41 0 7.82 0 0 Z " fill="#303738" transform="translate(32,11)"/>
<path d="M0 0 C1.00461777 -0.00307663 2.00923553 -0.00615326 3.04429626 -0.00932312 C4.12352859 -0.0021376 5.20276093 0.00504791 6.31469727 0.01245117 C7.4291774 0.01290939 8.54365753 0.01336761 9.69190979 0.01383972 C12.04803533 0.01685972 14.40415891 0.02473847 16.76025391 0.03710938 C20.36376028 0.05533222 23.96700905 0.05761921 27.57055664 0.05737305 C29.8602724 0.0622898 32.14998642 0.06811881 34.43969727 0.07495117 C36.05550941 0.07662041 36.05550941 0.07662041 37.70396423 0.07832336 C38.71173416 0.08470322 39.71950409 0.09108307 40.7578125 0.09765625 C42.08207497 0.10337395 42.08207497 0.10337395 43.43309021 0.10920715 C46.02031265 0.24700554 48.41914188 0.67335419 50.94360352 1.24291992 C50.94360352 1.57291992 50.94360352 1.90291992 50.94360352 2.24291992 C43.02360352 2.24291992 35.10360352 2.24291992 26.94360352 2.24291992 C26.61360352 3.23291992 26.28360352 4.22291992 25.94360352 5.24291992 C22.31360352 5.24291992 18.68360352 5.24291992 14.94360352 5.24291992 C14.61360352 4.25291992 14.28360352 3.26291992 13.94360352 2.24291992 C6.35360352 2.24291992 -1.23639648 2.24291992 -9.05639648 2.24291992 C-5.24764848 0.33854592 -4.02172996 -0.00649744 0 0 Z " fill="#0C1418" transform="translate(12.056396484375,51.757080078125)"/>
<path d="M0 0 C2.31 0 4.62 0 7 0 C7 11.88 7 23.76 7 36 C-17.75 35.505 -17.75 35.505 -43 35 C-43 34.67 -43 34.34 -43 34 C-27.16 34 -11.32 34 5 34 C5 23.44 5 12.88 5 2 C3.35 2 1.7 2 0 2 C0 1.34 0 0.68 0 0 Z " fill="#32607A" transform="translate(52,16)"/>
<path d="M0 0 C0.66 0 1.32 0 2 0 C2.33 9.57 2.66 19.14 3 29 C1.02 29 -0.96 29 -3 29 C-2.67 28.34 -2.34 27.68 -2 27 C-1.34 27 -0.68 27 0 27 C0 18.09 0 9.18 0 0 Z " fill="#000000" transform="translate(4,24)"/>
<path d="M0 0 C0.66 0 1.32 0 2 0 C2 7.26 2 14.52 2 22 C-1.96 22 -5.92 22 -10 22 C-7 20 -7 20 -1 18 C-0.505 9.09 -0.505 9.09 0 0 Z " fill="#771B15" transform="translate(49,13)"/>
<path d="M0 0 C1.98 0 3.96 0 6 0 C6 0.66 6 1.32 6 2 C4.35 2 2.7 2 1 2 C0.67 12.89 0.34 23.78 0 35 C-0.33 35 -0.66 35 -1 35 C-1.19345033 30.98036212 -1.371972 26.96035628 -1.53710938 22.93945312 C-1.59525335 21.57371568 -1.65736558 20.20814084 -1.72363281 18.84277344 C-1.81856421 16.8722278 -1.89771232 14.90094211 -1.9765625 12.9296875 C-2.02893066 11.74616699 -2.08129883 10.56264648 -2.13525391 9.34326172 C-1.9946952 5.86887366 -1.2583191 3.22524793 0 0 Z " fill="#315E76" transform="translate(7,16)"/>
<path d="M0 0 C0.99 0 1.98 0 3 0 C3 5.61 3 11.22 3 17 C2.34 17.33 1.68 17.66 1 18 C0.34 17.34 -0.32 16.68 -1 16 C-0.98252073 13.24410223 -0.86136729 10.61213324 -0.625 7.875 C-0.56828125 7.12089844 -0.5115625 6.36679687 -0.453125 5.58984375 C-0.3115535 3.72581904 -0.15700041 1.86278863 0 0 Z " fill="#79CEDB" transform="translate(52,20)"/>
<path d="M0 0 C0.33 0 0.66 0 1 0 C1 8.25 1 16.5 1 25 C-3.95 26.485 -3.95 26.485 -9 28 C-9.66 27.34 -10.32 26.68 -11 26 C-9.73160474 25.49384702 -8.46016898 24.99530901 -7.1875 24.5 C-6.47980469 24.2215625 -5.77210937 23.943125 -5.04296875 23.65625 C-3 23 -3 23 0 23 C0 15.41 0 7.82 0 0 Z " fill="#363231" transform="translate(47,7)"/>
<path d="M0 0 C0.33 0 0.66 0 1 0 C1 5.94 1 11.88 1 18 C4.3 18.99 7.6 19.98 11 21 C11 21.33 11 21.66 11 22 C7.37 22 3.74 22 0 22 C0 14.74 0 7.48 0 0 Z " fill="#C44327" transform="translate(15,13)"/>
<path d="M0 0 C-0.33 1.65 -0.66 3.3 -1 5 C-3.31 5.33 -5.62 5.66 -8 6 C-8.33 7.65 -8.66 9.3 -9 11 C-9.66 11 -10.32 11 -11 11 C-11.1875 7.625 -11.1875 7.625 -11 4 C-7.61125486 1.74083657 -4.15175481 0 0 0 Z " fill="#030608" transform="translate(15,11)"/>
<path d="M0 0 C0.33 0 0.66 0 1 0 C1 6.93 1 13.86 1 21 C-1.31 21 -3.62 21 -6 21 C-4 19 -4 19 -1 18 C-0.505 9.09 -0.505 9.09 0 0 Z " fill="#BF2D22" transform="translate(49,13)"/>
<path d="M0 0 C3.63 0.33 7.26 0.66 11 1 C11 1.66 11 2.32 11 3 C7.7 3.33 4.4 3.66 1 4 C0.67 2.68 0.34 1.36 0 0 Z " fill="#384F5B" transform="translate(26,53)"/>
<path d="M0 0 C-0.33 1.65 -0.66 3.3 -1 5 C-3.31 4.67 -5.62 4.34 -8 4 C-6.4425489 0.88509781 -3.40085499 0 0 0 Z " fill="#000000" transform="translate(15,11)"/>
</svg>
