<svg width="55" height="52" viewBox="0 0 55 52" fill="none" xmlns="http://www.w3.org/2000/svg">
<path d="M25.1429 30.3333H29.6429C30.2804 30.3333 30.8152 30.1253 31.2472 29.7093C31.6792 29.2933 31.8944 28.7791 31.8929 28.1666C31.8914 27.5542 31.6754 27.04 31.2449 26.624C30.8144 26.208 30.2804 26 29.6429 26H25.1429C24.5054 26 23.9714 26.208 23.5409 26.624C23.1104 27.04 22.8944 27.5542 22.8929 28.1666C22.8914 28.7791 23.1074 29.294 23.5409 29.7115C23.9744 30.1289 24.5084 30.3362 25.1429 30.3333ZM25.1429 23.8333H38.6429C39.2804 23.8333 39.8152 23.6253 40.2472 23.2093C40.6792 22.7933 40.8944 22.2791 40.8929 21.6666C40.8914 21.0542 40.6754 20.54 40.2449 20.124C39.8144 19.708 39.2804 19.5 38.6429 19.5H25.1429C24.5054 19.5 23.9714 19.708 23.5409 20.124C23.1104 20.54 22.8944 21.0542 22.8929 21.6666C22.8914 22.2791 23.1074 22.794 23.5409 23.2115C23.9744 23.6289 24.5084 23.8362 25.1429 23.8333ZM25.1429 17.3333H38.6429C39.2804 17.3333 39.8152 17.1253 40.2472 16.7093C40.6792 16.2933 40.8944 15.7791 40.8929 15.1666C40.8914 14.5542 40.6754 14.04 40.2449 13.624C39.8144 13.208 39.2804 13 38.6429 13H25.1429C24.5054 13 23.9714 13.208 23.5409 13.624C23.1104 14.04 22.8944 14.5542 22.8929 15.1666C22.8914 15.7791 23.1074 16.294 23.5409 16.7115C23.9744 17.1289 24.5084 17.3362 25.1429 17.3333ZM18.3929 39C17.1554 39 16.0964 38.576 15.2159 37.7281C14.3354 36.8803 13.8944 35.8598 13.8929 34.6666V8.66665C13.8929 7.47498 14.3339 6.4552 15.2159 5.60731C16.0979 4.75942 17.1569 4.33476 18.3929 4.33331H45.3929C46.6304 4.33331 47.6902 4.75798 48.5722 5.60731C49.4542 6.45665 49.8944 7.47642 49.8929 8.66665V34.6666C49.8929 35.8583 49.4527 36.8788 48.5722 37.7281C47.6917 38.5775 46.6319 39.0014 45.3929 39H18.3929ZM9.39294 47.6666C8.15544 47.6666 7.09644 47.2427 6.21594 46.3948C5.33544 45.5469 4.89444 44.5264 4.89294 43.3333V15.1666C4.89294 14.5528 5.10894 14.0385 5.54094 13.624C5.97294 13.2094 6.50694 13.0014 7.14294 13C7.77894 12.9985 8.31369 13.2065 8.74719 13.624C9.18069 14.0414 9.39594 14.5556 9.39294 15.1666V43.3333H38.6429C39.2804 43.3333 39.8152 43.5413 40.2472 43.9573C40.6792 44.3733 40.8944 44.8875 40.8929 45.5C40.8914 46.1124 40.6754 46.6274 40.2449 47.0448C39.8144 47.4623 39.2804 47.6695 38.6429 47.6666H9.39294Z" fill="black"/>
</svg>
